<svg xmlns="http://www.w3.org/2000/svg" viewBox="0 0 24 24" fill="none">
	<path
		d="M12 20.5c-.2 0-.4-.07-.57-.2l-1.9-1.58c-1.9-1.6-3.3-2.9-4.2-3.9-.9-1-1.35-2.03-1.35-3.1 0-1.37.45-2.5 1.36-3.39.9-.9 2.02-1.35 3.34-1.35.77 0 1.5.18 2.18.53.68.35 1.24.84 1.69 1.47.45-.63 1.01-1.12 1.69-1.47.68-.35 1.41-.53 2.18-.53 1.32 0 2.43.45 3.34 1.35.91.89 1.36 2.02 1.36 3.39 0 1.07-.45 2.1-1.35 3.1-.9 1-2.3 2.3-4.2 3.9l-1.9 1.58c-.17.13-.37.2-.57.2z"
		stroke="currentColor"
		stroke-width="1.75"
		stroke-linecap="round"
		stroke-linejoin="round"
	/>
</svg>
